<svg width="1500" height="200" viewBox="0 0 1500 200" fill="none" xmlns="http://www.w3.org/2000/svg" xmlns:xlink="http://www.w3.org/1999/xlink">
<style>.Vector_24 {
	animation: 300s linear 0s 1 normal forwards running Vector_24;
		transform: translateX(-3353px) translateY(9px);
}
@keyframes Vector_24 {
	0% {
		transform: translateX(-3353px) translateY(9px);
	}
	3.33% {
		transform: translateX(-1253px) translateY(9px);
	}
	6.67% {
		transform: translateX(-3353px) translateY(9px);
	}
	10% {
		transform: translateX(-1253px) translateY(9px);
	}
	13.33% {
		transform: translateX(-3353px) translateY(9px);
	}
	16.67% {
		transform: translateX(-1253px) translateY(9px);
	}
	20% {
		transform: translateX(-3353px) translateY(9px);
	}
	23.33% {
		transform: translateX(-1253px) translateY(9px);
	}
	26.67% {
		transform: translateX(-3353px) translateY(9px);
	}
	30% {
		transform: translateX(-1253px) translateY(9px);
	}
	40% {
		transform: translateX(-3353px) translateY(9px);
	}
	33.33% {
		transform: translateX(-3353px) translateY(9px);
	}
	36.67% {
		transform: translateX(-1253px) translateY(9px);
	}
	43.33% {
		transform: translateX(-1253px) translateY(9px);
	}
	46.67% {
		transform: translateX(-3353px) translateY(9px);
	}
	50% {
		transform: translateX(-1253px) translateY(9px);
	}
	60% {
		transform: translateX(-3353px) translateY(9px);
	}
	70% {
		transform: translateX(-1253px) translateY(9px);
	}
	80% {
		transform: translateX(-3353px) translateY(9px);
	}
	90% {
		transform: translateX(-1253px) translateY(9px);
	}
	100% {
		transform: translateX(-3353px) translateY(9px);
	}
	53.33% {
		transform: translateX(-3353px) translateY(9px);
	}
	56.67% {
		transform: translateX(-1253px) translateY(9px);
	}
	63.33% {
		transform: translateX(-1253px) translateY(9px);
	}
	66.67% {
		transform: translateX(-3353px) translateY(9px);
	}
	73.33% {
		transform: translateX(-3353px) translateY(9px);
	}
	76.67% {
		transform: translateX(-1253px) translateY(9px);
	}
	83.33% {
		transform: translateX(-1253px) translateY(9px);
	}
	86.67% {
		transform: translateX(-3353px) translateY(9px);
	}
	93.33% {
		transform: translateX(-3353px) translateY(9px);
	}
	96.67% {
		transform: translateX(-1253px) translateY(9px);
	}
}.Vector_942 {
	animation: 300s linear 0s 1 normal forwards running Vector_942;
		transform: translateX(-1861px) translateY(44px);
}
@keyframes Vector_942 {
	0% {
		transform: translateX(-1861px) translateY(44px);
	}
	3.33% {
		transform: translateX(-561px) translateY(44px);
	}
	6.67% {
		transform: translateX(-1861px) translateY(44px);
	}
	10% {
		transform: translateX(-561px) translateY(44px);
	}
	13.33% {
		transform: translateX(-1861px) translateY(44px);
	}
	16.67% {
		transform: translateX(-561px) translateY(44px);
	}
	20% {
		transform: translateX(-1861px) translateY(44px);
	}
	23.33% {
		transform: translateX(-561px) translateY(44px);
	}
	26.67% {
		transform: translateX(-1861px) translateY(44px);
	}
	30% {
		transform: translateX(-561px) translateY(44px);
	}
	40% {
		transform: translateX(-1861px) translateY(44px);
	}
	33.33% {
		transform: translateX(-1861px) translateY(44px);
	}
	36.67% {
		transform: translateX(-561px) translateY(44px);
	}
	43.33% {
		transform: translateX(-561px) translateY(44px);
	}
	46.67% {
		transform: translateX(-1861px) translateY(44px);
	}
	50% {
		transform: translateX(-561px) translateY(44px);
	}
	60% {
		transform: translateX(-1861px) translateY(44px);
	}
	70% {
		transform: translateX(-561px) translateY(44px);
	}
	80% {
		transform: translateX(-1861px) translateY(44px);
	}
	90% {
		transform: translateX(-561px) translateY(44px);
	}
	100% {
		transform: translateX(-1861px) translateY(44px);
	}
	53.33% {
		transform: translateX(-1861px) translateY(44px);
	}
	56.67% {
		transform: translateX(-561px) translateY(44px);
	}
	63.33% {
		transform: translateX(-561px) translateY(44px);
	}
	66.67% {
		transform: translateX(-1861px) translateY(44px);
	}
	73.33% {
		transform: translateX(-1861px) translateY(44px);
	}
	76.67% {
		transform: translateX(-561px) translateY(44px);
	}
	83.33% {
		transform: translateX(-561px) translateY(44px);
	}
	86.67% {
		transform: translateX(-1861px) translateY(44px);
	}
	93.33% {
		transform: translateX(-1861px) translateY(44px);
	}
	96.67% {
		transform: translateX(-561px) translateY(44px);
	}
}
</style>
<g clip-path="url(#clip_0_852)" width="1500" height="200" data-name="Frame 1">
	<path fill-rule="evenodd" clip-rule="evenodd" d="M3404 121C3238.59 121 3185.99 -0.249988 2972.65 1.22269e-05C2759.9 1.22269e-05 2706.71 121 2553 121V198H3404C3404 198 3404 150 3404 121Z" fill="url(#paint_linear___210)" data-name="Vector" class="Vector_24"/>
	<path fill-rule="evenodd" clip-rule="evenodd" d="M5106 121C4940.59 121 4887.99 -0.249988 4674.65 1.22269e-05C4461.9 1.22269e-05 4408.71 121 4255 121V198H5106C5106 198 5106 150 5106 121Z" fill="url(#paint_linear___164)" data-name="Vector" class="Vector_24"/>
	<path fill-rule="evenodd" clip-rule="evenodd" d="M4255 121C4089.59 121 4036.99 -0.249988 3823.65 1.22269e-05C3610.9 1.22269e-05 3557.71 121 3404 121V198H4255C4255 198 4255 150 4255 121Z" fill="url(#paint_linear___258)" data-name="Vector" class="Vector_24"/>
	<path fill-rule="evenodd" clip-rule="evenodd" d="M850.997 121C685.587 121 632.986 -0.249622 419.649 0.000378438C206.899 0.000378438 153.712 121 0 121V198H851C851 198 850.997 150 850.997 121Z" fill="url(#paint_linear___730)" data-name="Vector" class="Vector_24"/>
	<path fill-rule="evenodd" clip-rule="evenodd" d="M2553 121C2387.59 121 2334.99 -0.249622 2121.65 0.000378438C1908.9 0.000378438 1855.71 121 1702 121V198L2553 198C2553 198 2553 150 2553 121Z" fill="url(#paint_linear___957)" data-name="Vector" class="Vector_24"/>
	<path fill-rule="evenodd" clip-rule="evenodd" d="M1702 121C1536.59 121 1483.99 -0.249622 1270.65 0.000378438C1057.9 0.000378438 1004.71 121 851 121V198H1702C1702 198 1702 150 1702 121Z" fill="url(#paint_linear___905)" data-name="Vector" class="Vector_24"/>
	<path fill-rule="evenodd" clip-rule="evenodd" d="M2348 95.3333C2233.9 95.3333 2197.62 -0.196971 2050.46 -1.00161e-06C1903.71 -1.00161e-06 1867.03 95.3333 1761 95.3333V156H2348C2348 156 2348 118.182 2348 95.3333Z" fill="url(#paint_linear___920)" data-name="Vector" class="Vector_942"/>
	<path fill-rule="evenodd" clip-rule="evenodd" d="M3522 95.3333C3407.9 95.3333 3371.62 -0.196971 3224.46 -1.00161e-06C3077.71 -1.00161e-06 3041.03 95.3333 2935 95.3333V156H3522C3522 156 3522 118.182 3522 95.3333Z" fill="url(#paint_linear___860)" data-name="Vector" class="Vector_942"/>
	<path fill-rule="evenodd" clip-rule="evenodd" d="M2935 95.3333C2820.9 95.3333 2784.62 -0.196971 2637.46 -1.00161e-06C2490.71 -1.00161e-06 2454.03 95.3333 2348 95.3333V156H2935C2935 156 2935 118.182 2935 95.3333Z" fill="url(#paint_linear___626)" data-name="Vector" class="Vector_942"/>
	<path fill-rule="evenodd" clip-rule="evenodd" d="M586.998 95.3333C472.902 95.3333 436.619 -0.196971 289.464 -1.00161e-06C142.714 -1.00161e-06 106.027 95.3333 0 95.3333V156H587C587 156 586.998 118.182 586.998 95.3333Z" fill="url(#paint_linear___207)" data-name="Vector" class="Vector_942"/>
	<path fill-rule="evenodd" clip-rule="evenodd" d="M1761 95.3333C1646.9 95.3333 1610.62 -0.196971 1463.46 -1.00161e-06C1316.71 -1.00161e-06 1280.03 95.3333 1174 95.3333V156H1761C1761 156 1761 118.182 1761 95.3333Z" fill="url(#paint_linear___949)" data-name="Vector" class="Vector_942"/>
	<path fill-rule="evenodd" clip-rule="evenodd" d="M1174 95.3333C1059.9 95.3333 1023.62 -0.196971 876.464 -1.00161e-06C729.714 -1.00161e-06 693.027 95.3333 587 95.3333V156H1174C1174 156 1174 118.182 1174 95.3333Z" fill="url(#paint_linear___336)" data-name="Vector" class="Vector_942"/>
</g>
<defs><clipPath id="clip_0_852"><rect width="1500" height="200"/></clipPath>
<linearGradient id="paint_linear___210" x1="2553" y1="-21.6993" x2="2553" y2="198" gradientUnits="userSpaceOnUse">
<stop stop-color="#8057C1" stop-opacity="0.25"/>
<stop offset="1" stop-color="#330171"/>
</linearGradient>
<linearGradient id="paint_linear___164" x1="2553" y1="-21.6993" x2="2553" y2="198" gradientUnits="userSpaceOnUse">
<stop stop-color="#8057C1" stop-opacity="0.25"/>
<stop offset="1" stop-color="#330171"/>
</linearGradient>
<linearGradient id="paint_linear___258" x1="2553" y1="-21.6993" x2="2553" y2="198" gradientUnits="userSpaceOnUse">
<stop stop-color="#8057C1" stop-opacity="0.25"/>
<stop offset="1" stop-color="#330171"/>
</linearGradient>
<linearGradient id="paint_linear___730" x1="2553" y1="-21.6993" x2="2553" y2="198" gradientUnits="userSpaceOnUse">
<stop stop-color="#8057C1" stop-opacity="0.25"/>
<stop offset="1" stop-color="#330171"/>
</linearGradient>
<linearGradient id="paint_linear___957" x1="2553" y1="-21.6993" x2="2553" y2="198" gradientUnits="userSpaceOnUse">
<stop stop-color="#8057C1" stop-opacity="0.25"/>
<stop offset="1" stop-color="#330171"/>
</linearGradient>
<linearGradient id="paint_linear___905" x1="2553" y1="-21.6993" x2="2553" y2="198" gradientUnits="userSpaceOnUse">
<stop stop-color="#8057C1" stop-opacity="0.25"/>
<stop offset="1" stop-color="#330171"/>
</linearGradient>

<linearGradient id="paint_linear___920" x1="1761" y1="-17.0964" x2="1761" y2="156" gradientUnits="userSpaceOnUse">
<stop stop-color="#8057C1" stop-opacity="0.25"/>
<stop offset="1" stop-color="#330171"/>
</linearGradient>
<linearGradient id="paint_linear___860" x1="1761" y1="-17.0964" x2="1761" y2="156" gradientUnits="userSpaceOnUse">
<stop stop-color="#8057C1" stop-opacity="0.25"/>
<stop offset="1" stop-color="#330171"/>
</linearGradient>
<linearGradient id="paint_linear___626" x1="1761" y1="-17.0964" x2="1761" y2="156" gradientUnits="userSpaceOnUse">
<stop stop-color="#8057C1" stop-opacity="0.25"/>
<stop offset="1" stop-color="#330171"/>
</linearGradient>
<linearGradient id="paint_linear___207" x1="1761" y1="-17.0964" x2="1761" y2="156" gradientUnits="userSpaceOnUse">
<stop stop-color="#8057C1" stop-opacity="0.25"/>
<stop offset="1" stop-color="#330171"/>
</linearGradient>
<linearGradient id="paint_linear___949" x1="1761" y1="-17.0964" x2="1761" y2="156" gradientUnits="userSpaceOnUse">
<stop stop-color="#8057C1" stop-opacity="0.25"/>
<stop offset="1" stop-color="#330171"/>
</linearGradient>
<linearGradient id="paint_linear___336" x1="1761" y1="-17.0964" x2="1761" y2="156" gradientUnits="userSpaceOnUse">
<stop stop-color="#8057C1" stop-opacity="0.25"/>
<stop offset="1" stop-color="#330171"/>
</linearGradient>

</defs>
</svg>